<svg width="48" height="48" xmlns="http://www.w3.org/2000/svg">
  <rect width="48" height="48" fill="#1DA1F2" rx="8"/>
  <circle cx="24" cy="24" r="3" fill="white"/>
  <polygon points="24,10 26,18 24,16 22,18" fill="white"/>
  <polygon points="24,38 26,30 24,32 22,30" fill="white"/>
  <polygon points="10,24 18,26 16,24 18,22" fill="white"/>
  <polygon points="38,24 30,26 32,24 30,22" fill="white"/>
  <polygon points="16,16 20,20 18,18 20,16" fill="white" opacity="0.7"/>
  <polygon points="32,16 28,20 30,18 28,16" fill="white" opacity="0.7"/>
  <polygon points="16,32 20,28 18,30 20,32" fill="white" opacity="0.7"/>
  <polygon points="32,32 28,28 30,30 28,32" fill="white" opacity="0.7"/>
</svg>
