<svg width="128" height="128" xmlns="http://www.w3.org/2000/svg">
  <rect width="128" height="128" fill="#1DA1F2" rx="16"/>
  <circle cx="64" cy="64" r="8" fill="white"/>
  <polygon points="64,20 70,45 64,40 58,45" fill="white"/>
  <polygon points="64,108 70,83 64,88 58,83" fill="white"/>
  <polygon points="20,64 45,70 40,64 45,58" fill="white"/>
  <polygon points="108,64 83,70 88,64 83,58" fill="white"/>
  <polygon points="38,38 50,50 44,44 50,38" fill="white" opacity="0.7"/>
  <polygon points="90,38 78,50 84,44 78,38" fill="white" opacity="0.7"/>
  <polygon points="38,90 50,78 44,84 50,90" fill="white" opacity="0.7"/>
  <polygon points="90,90 78,78 84,84 78,90" fill="white" opacity="0.7"/>
</svg>
